Genre:Drama
Language:English
 
http://www.imdb.com/title/tt1023114/

Source:1080p Bluray x264-CBGB
Subtitles:Romana


Format : MPEG-4
Format profile : Base Media
Codec ID : isom
File size : 3.13 GiB
Duration : 2h 13mn
Overall bit rate : 3 366 Kbps


Video
Format profile : High@L4.1
Format settings, CABAC : Yes
Format settings, ReFrames : 3 frames
Codec ID : avc1
Codec ID/Info : Advanced Video Coding
Duration : 2h 13mn
Bit rate mode : Variable
Bit rate : 3 000 Kbps
Maximum bit rate : 20.0 Mbps
Width : 1 280 pixels
Height : 544 pixels
Display aspect ratio : 2.35:1
Frame rate mode : Constant
Frame rate : 23.976 fps
Color space : YUV
Chroma subsampling : 4:2:0
Bit depth : 8 bits
Scan type : Progressive
Bits/(Pixel*Frame) : 0.180
Stream size : 2.71 GiB (87%)
Writing library : x264


Audio
ID : 2
Format : AAC
Format/Info : Advanced Audio Codec
Format version : Version 4
Format profile : LC
Format settings, SBR : No
Codec ID : 40
Duration : 2h 13mn
Bit rate mode : Variable
Bit rate : 444 Kbps
Maximum bit rate : 580 Kbps
Channel(s) : 6 channels
Channel positions : Front: L C R, Side: L R, LFE
Sampling rate : 48.0 KHz
Stream size : 423 MiB (13%)


Plot:
Siberian gulag escapees walk 4000 miles overland to freedom in India
 
http://www.pix2links.com/images/16732726332408196919.png
 
http://www.pix2links.com/images/44095013123900300556.png
 
http://www.pix2links.com/images/75562072481893013754.png
 
http://www.pix2links.com/images/85399751428272307133.png

